<svg width="150" height="50" viewBox="0 0 150 50" fill="none" xmlns="http://www.w3.org/2000/svg">
<rect width="150" height="50" fill="#709A47"/>
<path d="M61.375 31.92H61.8V34.61H63.165V35H61.375V31.92ZM64.3802 35.04C64.1535 35.04 63.9802 34.9867 63.8602 34.88C63.7435 34.77 63.6852 34.6217 63.6852 34.435C63.6852 34.1817 63.7818 33.9933 63.9752 33.87C64.1685 33.7467 64.4352 33.685 64.7752 33.685C64.8852 33.685 64.9952 33.69 65.1052 33.7V33.39C65.1052 33.21 65.0685 33.0883 64.9952 33.025C64.9218 32.9583 64.7918 32.925 64.6052 32.925C64.4918 32.925 64.3818 32.9317 64.2752 32.945L64.2252 33.32H63.9202C63.8768 33.2033 63.8552 33.0917 63.8552 32.985V32.86C63.9552 32.7967 64.0902 32.74 64.2602 32.69C64.4335 32.6367 64.5918 32.61 64.7352 32.61C64.9852 32.61 65.1768 32.675 65.3102 32.805C65.4468 32.9317 65.5152 33.1117 65.5152 33.345V35H65.1502L65.1302 34.67H65.0902C65.0068 34.7867 64.9018 34.8783 64.7752 34.945C64.6518 35.0083 64.5202 35.04 64.3802 35.04ZM64.4352 34.72C64.5718 34.72 64.7002 34.6883 64.8202 34.625C64.9402 34.5617 65.0385 34.4717 65.1152 34.355V33.985C64.9985 33.9583 64.8452 33.945 64.6552 33.945C64.4452 33.945 64.2918 33.9583 64.1952 33.985C64.1652 34.0583 64.1435 34.125 64.1302 34.185C64.1202 34.2417 64.1152 34.31 64.1152 34.39C64.1152 34.51 64.1418 34.595 64.1952 34.645C64.2518 34.695 64.3318 34.72 64.4352 34.72ZM67.0633 35.04C66.83 35.04 66.66 34.99 66.5533 34.89C66.4467 34.7867 66.3933 34.6133 66.3933 34.37V32.65H66.8033V34.635C66.9067 34.665 67.0167 34.68 67.1333 34.68C67.4433 34.68 67.69 34.5733 67.8733 34.36V32.65H68.2833V35H67.9283L67.8983 34.64H67.8583C67.745 34.7667 67.625 34.865 67.4983 34.935C67.3717 35.005 67.2267 35.04 67.0633 35.04ZM69.221 32.66H69.566L69.596 33.12H69.646C69.716 32.97 69.8226 32.8517 69.966 32.765C70.1093 32.675 70.251 32.63 70.391 32.63C70.4176 32.63 70.451 32.645 70.491 32.675C70.531 32.7017 70.5576 32.7267 70.571 32.75L70.526 33.085H70.296C70.1293 33.085 69.986 33.1217 69.866 33.195C69.746 33.2683 69.6676 33.3783 69.631 33.525V35H69.221V32.66ZM72.2211 35.04C71.5211 35.04 71.1711 34.6417 71.1711 33.845C71.1711 33.4583 71.2628 33.1567 71.4461 32.94C71.6328 32.72 71.8978 32.61 72.2411 32.61C72.5344 32.61 72.7528 32.695 72.8961 32.865C73.0428 33.0317 73.1161 33.2617 73.1161 33.555C73.1161 33.6217 73.1144 33.6717 73.1111 33.705L72.8111 34L71.5661 33.98C71.5728 34.2133 71.6328 34.3917 71.7461 34.515C71.8594 34.635 72.0261 34.695 72.2461 34.695C72.3961 34.695 72.5244 34.6767 72.6311 34.64C72.7411 34.6 72.8528 34.5417 72.9661 34.465L73.0961 34.78C72.9628 34.8633 72.8311 34.9283 72.7011 34.975C72.5711 35.0183 72.4111 35.04 72.2211 35.04ZM72.7111 33.67C72.7311 33.58 72.7411 33.4983 72.7411 33.425C72.7411 33.2783 72.6978 33.1633 72.6111 33.08C72.5244 32.9967 72.3928 32.955 72.2161 32.955C71.9761 32.955 71.8078 33.0133 71.7111 33.13C71.6178 33.2433 71.5678 33.43 71.5611 33.69L72.7111 33.67ZM73.9325 32.65H74.2875L74.3175 33.01H74.3575C74.4642 32.8833 74.5825 32.785 74.7125 32.715C74.8425 32.645 74.9942 32.61 75.1675 32.61C75.4008 32.61 75.5708 32.6617 75.6775 32.765C75.7875 32.865 75.8425 33.0367 75.8425 33.28V35H75.4325V33.015C75.3292 32.985 75.2175 32.97 75.0975 32.97C74.9242 32.97 74.7775 32.9967 74.6575 33.05C74.5375 33.1033 74.4325 33.1833 74.3425 33.29V35H73.9325V32.65ZM79.6934 35.04C79.24 35.04 78.905 34.915 78.6884 34.665C78.4717 34.415 78.3634 34.045 78.3634 33.555C78.3634 33.0417 78.4717 32.6333 78.6884 32.33C78.905 32.0233 79.2267 31.87 79.6534 31.87C79.8334 31.87 80.0167 31.89 80.2034 31.93C80.39 31.97 80.525 32.0183 80.6084 32.075V32.355C80.6084 32.4817 80.5867 32.5967 80.5434 32.7H80.2484L80.1984 32.305C80.0484 32.275 79.865 32.26 79.6484 32.26C79.455 32.26 79.2567 32.2817 79.0534 32.325C78.97 32.4783 78.905 32.66 78.8584 32.87C78.8117 33.08 78.7884 33.2983 78.7884 33.525C78.7884 33.925 78.8584 34.2133 78.9984 34.39C79.1384 34.5633 79.3734 34.65 79.7034 34.65C79.86 34.65 80.0134 34.6317 80.1634 34.595C80.3167 34.555 80.4367 34.5017 80.5234 34.435L80.7184 34.755C80.6117 34.845 80.4667 34.915 80.2834 34.965C80.1034 35.015 79.9067 35.04 79.6934 35.04ZM81.5003 31.645H81.9103V32.66L81.8953 33.01H81.9253C82.0319 32.8833 82.1503 32.785 82.2803 32.715C82.4103 32.645 82.5619 32.61 82.7353 32.61C82.9686 32.61 83.1386 32.6617 83.2453 32.765C83.3553 32.865 83.4103 33.0367 83.4103 33.28V35H83.0003V33.015C82.8969 32.985 82.7853 32.97 82.6653 32.97C82.4919 32.97 82.3453 32.9967 82.2253 33.05C82.1053 33.1033 82.0003 33.1833 81.9103 33.29V35H81.5003V31.645ZM85.1971 35.04C84.8438 35.04 84.5904 34.9367 84.4371 34.73C84.2871 34.5233 84.2121 34.2283 84.2121 33.845C84.2121 33.015 84.5788 32.6 85.3121 32.6C85.9688 32.6 86.2971 33.015 86.2971 33.845C86.2971 34.2417 86.2104 34.54 86.0371 34.74C85.8638 34.94 85.5838 35.04 85.1971 35.04ZM85.3121 34.69C85.4954 34.69 85.6521 34.6617 85.7821 34.605C85.8554 34.4517 85.8921 34.225 85.8921 33.925C85.8921 33.6883 85.8738 33.5033 85.8371 33.37C85.8038 33.2333 85.7371 33.1317 85.6371 33.065C85.5404 32.9983 85.3938 32.965 85.1971 32.965C85.0071 32.965 84.8504 32.9917 84.7271 33.045C84.6538 33.2017 84.6171 33.445 84.6171 33.775C84.6171 34.0083 84.6338 34.1883 84.6671 34.315C84.7004 34.4417 84.7671 34.5367 84.8671 34.6C84.9671 34.66 85.1154 34.69 85.3121 34.69ZM87.7551 35.04C87.5218 35.04 87.3518 34.99 87.2451 34.89C87.1385 34.7867 87.0851 34.6133 87.0851 34.37V32.65H87.4951V34.635C87.5985 34.665 87.7085 34.68 87.8251 34.68C88.1351 34.68 88.3818 34.5733 88.5651 34.36V32.65H88.9751V35H88.6201L88.5901 34.64H88.5501C88.4368 34.7667 88.3168 34.865 88.1901 34.935C88.0635 35.005 87.9185 35.04 87.7551 35.04Z" fill="#090446"/>
<path d="M70.6615 41.04C70.2982 41.04 70.0215 40.965 69.8315 40.815C69.6449 40.6617 69.5515 40.4333 69.5515 40.13V37.92H69.9765V40.055C69.9765 40.2817 70.0315 40.4383 70.1415 40.525C70.2515 40.6083 70.4365 40.65 70.6965 40.65C70.8565 40.65 71.0015 40.64 71.1315 40.62C71.2649 40.6 71.3682 40.5733 71.4415 40.54V37.92H71.8665V40.36C71.8665 40.6067 71.7599 40.7817 71.5465 40.885C71.3332 40.9883 71.0382 41.04 70.6615 41.04ZM72.6234 37.92H73.0484V41H72.6234V37.92ZM73.7295 41.385L75.0345 37.685L75.3845 37.77L74.0795 41.475L73.7295 41.385ZM77.1508 41.04C76.7874 41.04 76.5108 40.965 76.3208 40.815C76.1341 40.6617 76.0408 40.4333 76.0408 40.13V37.92H76.4658V40.055C76.4658 40.2817 76.5208 40.4383 76.6308 40.525C76.7408 40.6083 76.9258 40.65 77.1858 40.65C77.3458 40.65 77.4908 40.64 77.6208 40.62C77.7541 40.6 77.8574 40.5733 77.9308 40.54V37.92H78.3558V40.36C78.3558 40.6067 78.2491 40.7817 78.0358 40.885C77.8224 40.9883 77.5274 41.04 77.1508 41.04ZM78.9327 40.94C79.1527 40.54 79.466 40.055 79.8727 39.485C79.4893 38.915 79.1827 38.415 78.9527 37.985L79.4177 37.895C79.6243 38.3017 79.891 38.7617 80.2177 39.275H80.3027C80.4893 39.0117 80.6493 38.7767 80.7827 38.57C80.9193 38.36 81.0493 38.135 81.1727 37.895L81.6027 37.98C81.4027 38.3533 81.086 38.84 80.6527 39.44C81.0393 40.03 81.336 40.53 81.5427 40.94L81.0927 41.04C80.9827 40.8133 80.8677 40.5967 80.7477 40.39C80.6277 40.1833 80.4793 39.9367 80.3027 39.65H80.2177L80.1427 39.76C79.9593 40.0333 79.8093 40.2617 79.6927 40.445C79.5793 40.6283 79.4693 40.8267 79.3627 41.04L78.9327 40.94Z" fill="#090446"/>
<path d="M70.9393 29.721C70.3998 29.7425 69.86 29.608 69.3202 29.3173C68.7928 29.0381 68.1149 28.5967 67.2865 27.9933C66.6681 27.5376 66.1372 27.1685 65.6937 26.8859C65.2627 26.6149 64.7914 26.3875 64.2798 26.2038C63.7801 26.0195 63.2725 25.9377 62.7569 25.9583C62.5771 25.9655 62.4394 25.977 62.344 25.9928L64.533 13.4215C63.7424 13.7773 63.1385 14.2998 62.7213 14.989C62.3156 15.6657 62.1316 16.4837 62.1694 17.4429C62.1869 17.8866 62.2411 18.1967 62.3322 18.3732C62.4227 18.5377 62.4684 18.632 62.4694 18.6559C61.8219 18.6818 61.3311 18.5693 60.997 18.3184C60.6743 18.055 60.5008 17.6116 60.4762 16.9881C60.446 16.2207 60.7285 15.4648 61.3236 14.7205C61.9303 13.9637 62.7166 13.3439 63.6823 12.861C64.6476 12.3661 65.6218 12.099 66.605 12.0598C66.7729 12.0531 67.0132 12.0555 67.3259 12.0671L65.0646 25.0916C65.4037 25.1621 65.7501 25.2684 66.104 25.4104C66.4703 25.5639 66.9107 25.7685 67.4251 26.0242C68.2211 26.4128 68.899 26.704 69.4591 26.8978C70.0196 27.1036 70.5997 27.1945 71.1992 27.1706C71.7388 27.1491 72.2386 27.0331 72.6986 26.8226C72.6372 27.7017 72.4485 28.3998 72.1326 28.9168C71.8287 29.4333 71.4309 29.7014 70.9393 29.721Z" fill="#DEDBD8"/>
<path d="M79.0628 10.1759C78.9626 9.662 79.3203 9.17055 79.8402 9.10784V9.10784C80.3341 9.04827 80.782 9.40038 80.8408 9.89431L81.7269 17.3382C81.765 17.658 81.5531 17.9543 81.2383 18.0219V18.0219C80.8978 18.0949 80.564 17.8747 80.4974 17.533L79.0628 10.1759Z" fill="#DEDBD8"/>
<path d="M82.8846 14.1507C83.169 14.0662 83.469 14.2196 83.567 14.4998V14.4998C83.6684 14.7897 83.5166 15.1081 83.2275 15.2118L78.7446 16.8202C78.2962 16.9811 77.8254 16.6492 77.8254 16.1722V16.1722C77.8254 15.8655 78.027 15.5949 78.3205 15.5077L82.8846 14.1507Z" fill="#DEDBD8"/>
<path d="M82.915 16.7854C83.1376 16.7187 83.3692 16.8559 83.4178 17.0833V17.0833C83.4596 17.2792 83.3502 17.4763 83.1619 17.5442L78.1193 19.3634C77.8219 19.4707 77.4969 19.3034 77.4111 18.999V18.999C77.3301 18.7111 77.4951 18.4106 77.7814 18.3248L82.915 16.7854Z" fill="#DEDBD8"/>
<path d="M85.7963 10.3727C86.3003 10.2264 86.8229 10.5316 86.9429 11.0424V11.0424C87.0588 11.536 86.753 12.0313 86.2597 12.1487L76.389 14.4985C75.969 14.5984 75.5668 14.2804 75.5668 13.8484V13.8484C75.5668 13.5497 75.7643 13.2865 76.0511 13.2032L85.7963 10.3727Z" fill="#DEDBD8"/>
<rect width="1.87045" height="17.3137" rx="0.935223" transform="matrix(-0.999985 -0.00545759 0.00538555 -0.999986 86.8751 27.7518)" fill="#DEDBD8"/>
<path d="M83.2343 24.8241L86.1906 26.348L85.2621 27.4721L83.2343 24.8241Z" fill="#DEDBD8"/>
<path d="M70.6269 29.7034L71.8594 27.2453L72.9222 28.317L70.6269 29.7034Z" fill="#DEDBD8"/>
<rect width="1.41961" height="4.20009" rx="0.709805" transform="matrix(-0.964677 0.263437 -0.260197 -0.965556 79.0177 24.4827)" fill="#DEDBD8"/>
<path d="M82.3153 22.7921C82.2971 22.897 82.2373 22.99 82.1495 23.05V23.05C81.8857 23.2304 81.5276 23.0375 81.5319 22.7174L81.5756 19.4794C81.5811 19.0703 81.9575 18.7683 82.3578 18.8519V18.8519C82.7021 18.9237 82.9279 19.2561 82.8679 19.6027L82.3153 22.7921Z" fill="#DEDBD8"/>
<rect width="0.773079" height="5.76907" rx="0.386539" transform="matrix(-0.348517 -0.937303 0.935773 -0.352603 77.1473 21.4565)" fill="#DEDBD8"/>
<path d="M78.5435 24.5916C78.3691 24.6624 78.1696 24.6057 78.0588 24.4539V24.4539C77.8916 24.2249 78.001 23.8981 78.2725 23.8156L83.2249 22.3106C83.4012 22.257 83.5305 22.476 83.3991 22.6058V22.6058C83.3825 22.6222 83.3628 22.6351 83.3412 22.6439L78.5435 24.5916Z" fill="#DEDBD8"/>
<path d="M74.1815 23.7103C74.4283 23.3354 74.9348 23.2406 75.3004 23.5008V23.5008C75.6532 23.7518 75.7422 24.2401 75.5008 24.5996L73.1292 28.1301C72.9113 28.4545 72.4872 28.5647 72.1395 28.3874V28.3874C71.7262 28.1767 71.5875 27.651 71.8428 27.2631L74.1815 23.7103Z" fill="#DEDBD8"/>
<path d="M73.8182 15.8624C73.8314 15.5171 74.0632 15.2188 74.3944 15.1208V15.1208C74.9023 14.9704 75.415 15.3427 75.4291 15.8724L75.6438 23.9105C75.6509 24.1756 75.5589 24.4339 75.3859 24.6348V24.6348C74.7273 25.3996 73.4729 24.9061 73.5114 23.8972L73.8182 15.8624Z" fill="#DEDBD8"/>
<path d="M73.5798 23.6415L73.8092 24.1237L73.5798 25.3678L73.2015 25.2971L73.5798 23.6415Z" fill="#DEDBD8"/>
</svg>
